<?xml version="1.0" encoding="utf-8" standalone="no"?>
<!DOCTYPE svg PUBLIC "-//W3C//DTD SVG 1.1//EN"
  "http://www.w3.org/Graphics/SVG/1.1/DTD/svg11.dtd">
<svg xmlns:xlink="http://www.w3.org/1999/xlink" width="460.8pt" height="345.6pt" viewBox="0 0 460.8 345.6" xmlns="http://www.w3.org/2000/svg" version="1.1">
 <metadata>
  <rdf:RDF xmlns:dc="http://purl.org/dc/elements/1.1/" xmlns:cc="http://creativecommons.org/ns#" xmlns:rdf="http://www.w3.org/1999/02/22-rdf-syntax-ns#">
   <cc:Work>
    <dc:type rdf:resource="http://purl.org/dc/dcmitype/StillImage"/>
    <dc:date>2022-11-08T17:16:35.750504</dc:date>
    <dc:format>image/svg+xml</dc:format>
    <dc:creator>
     <cc:Agent>
      <dc:title>Matplotlib v3.5.1, https://matplotlib.org/</dc:title>
     </cc:Agent>
    </dc:creator>
   </cc:Work>
  </rdf:RDF>
 </metadata>
 <defs>
  <style type="text/css">*{stroke-linejoin: round; stroke-linecap: butt}</style>
 </defs>
 <g id="figure_1">
  <g id="patch_1">
   <path d="M 0 345.6 
L 460.8 345.6 
L 460.8 0 
L 0 0 
z
" style="fill: #ffffff"/>
  </g>
  <g id="axes_1">
   <g id="patch_2">
    <path d="M 57.6 162.432 
L 414.72 162.432 
L 414.72 41.472 
L 57.6 41.472 
z
" style="fill: #ffffff"/>
   </g>
   <g id="matplotlib.axis_1">
    <g id="xtick_1">
     <g id="line2d_1">
      <defs>
       <path id="mde43a81e0b" d="M 0 0 
L 0 3.5 
" style="stroke: #000000; stroke-width: 0.8"/>
      </defs>
      <g>
       <use xlink:href="#mde43a81e0b" x="63.453242" y="162.432" style="stroke: #000000; stroke-width: 0.8"/>
      </g>
     </g>
    </g>
    <g id="xtick_2">
     <g id="line2d_2">
      <g>
       <use xlink:href="#mde43a81e0b" x="130.460048" y="162.432" style="stroke: #000000; stroke-width: 0.8"/>
      </g>
     </g>
    </g>
    <g id="xtick_3">
     <g id="line2d_3">
      <g>
       <use xlink:href="#mde43a81e0b" x="197.466854" y="162.432" style="stroke: #000000; stroke-width: 0.8"/>
      </g>
     </g>
    </g>
    <g id="xtick_4">
     <g id="line2d_4">
      <g>
       <use xlink:href="#mde43a81e0b" x="264.47366" y="162.432" style="stroke: #000000; stroke-width: 0.8"/>
      </g>
     </g>
    </g>
    <g id="xtick_5">
     <g id="line2d_5">
      <g>
       <use xlink:href="#mde43a81e0b" x="331.480467" y="162.432" style="stroke: #000000; stroke-width: 0.8"/>
      </g>
     </g>
    </g>
    <g id="xtick_6">
     <g id="line2d_6">
      <g>
       <use xlink:href="#mde43a81e0b" x="398.487273" y="162.432" style="stroke: #000000; stroke-width: 0.8"/>
      </g>
     </g>
    </g>
    <g id="xtick_7">
     <g id="line2d_7">
      <defs>
       <path id="m62e604214b" d="M 0 0 
L 0 2 
" style="stroke: #000000; stroke-width: 0.6"/>
      </defs>
      <g>
       <use xlink:href="#m62e604214b" x="60.387178" y="162.432" style="stroke: #000000; stroke-width: 0.6"/>
      </g>
     </g>
    </g>
    <g id="xtick_8">
     <g id="line2d_8">
      <g>
       <use xlink:href="#m62e604214b" x="83.6243" y="162.432" style="stroke: #000000; stroke-width: 0.6"/>
      </g>
     </g>
    </g>
    <g id="xtick_9">
     <g id="line2d_9">
      <g>
       <use xlink:href="#m62e604214b" x="95.423613" y="162.432" style="stroke: #000000; stroke-width: 0.6"/>
      </g>
     </g>
    </g>
    <g id="xtick_10">
     <g id="line2d_10">
      <g>
       <use xlink:href="#m62e604214b" x="103.795359" y="162.432" style="stroke: #000000; stroke-width: 0.6"/>
      </g>
     </g>
    </g>
    <g id="xtick_11">
     <g id="line2d_11">
      <g>
       <use xlink:href="#m62e604214b" x="110.288989" y="162.432" style="stroke: #000000; stroke-width: 0.6"/>
      </g>
     </g>
    </g>
    <g id="xtick_12">
     <g id="line2d_12">
      <g>
       <use xlink:href="#m62e604214b" x="115.594672" y="162.432" style="stroke: #000000; stroke-width: 0.6"/>
      </g>
     </g>
    </g>
    <g id="xtick_13">
     <g id="line2d_13">
      <g>
       <use xlink:href="#m62e604214b" x="120.080562" y="162.432" style="stroke: #000000; stroke-width: 0.6"/>
      </g>
     </g>
    </g>
    <g id="xtick_14">
     <g id="line2d_14">
      <g>
       <use xlink:href="#m62e604214b" x="123.966417" y="162.432" style="stroke: #000000; stroke-width: 0.6"/>
      </g>
     </g>
    </g>
    <g id="xtick_15">
     <g id="line2d_15">
      <g>
       <use xlink:href="#m62e604214b" x="127.393985" y="162.432" style="stroke: #000000; stroke-width: 0.6"/>
      </g>
     </g>
    </g>
    <g id="xtick_16">
     <g id="line2d_16">
      <g>
       <use xlink:href="#m62e604214b" x="150.631106" y="162.432" style="stroke: #000000; stroke-width: 0.6"/>
      </g>
     </g>
    </g>
    <g id="xtick_17">
     <g id="line2d_17">
      <g>
       <use xlink:href="#m62e604214b" x="162.430419" y="162.432" style="stroke: #000000; stroke-width: 0.6"/>
      </g>
     </g>
    </g>
    <g id="xtick_18">
     <g id="line2d_18">
      <g>
       <use xlink:href="#m62e604214b" x="170.802165" y="162.432" style="stroke: #000000; stroke-width: 0.6"/>
      </g>
     </g>
    </g>
    <g id="xtick_19">
     <g id="line2d_19">
      <g>
       <use xlink:href="#m62e604214b" x="177.295796" y="162.432" style="stroke: #000000; stroke-width: 0.6"/>
      </g>
     </g>
    </g>
    <g id="xtick_20">
     <g id="line2d_20">
      <g>
       <use xlink:href="#m62e604214b" x="182.601478" y="162.432" style="stroke: #000000; stroke-width: 0.6"/>
      </g>
     </g>
    </g>
    <g id="xtick_21">
     <g id="line2d_21">
      <g>
       <use xlink:href="#m62e604214b" x="187.087368" y="162.432" style="stroke: #000000; stroke-width: 0.6"/>
      </g>
     </g>
    </g>
    <g id="xtick_22">
     <g id="line2d_22">
      <g>
       <use xlink:href="#m62e604214b" x="190.973224" y="162.432" style="stroke: #000000; stroke-width: 0.6"/>
      </g>
     </g>
    </g>
    <g id="xtick_23">
     <g id="line2d_23">
      <g>
       <use xlink:href="#m62e604214b" x="194.400791" y="162.432" style="stroke: #000000; stroke-width: 0.6"/>
      </g>
     </g>
    </g>
    <g id="xtick_24">
     <g id="line2d_24">
      <g>
       <use xlink:href="#m62e604214b" x="217.637913" y="162.432" style="stroke: #000000; stroke-width: 0.6"/>
      </g>
     </g>
    </g>
    <g id="xtick_25">
     <g id="line2d_25">
      <g>
       <use xlink:href="#m62e604214b" x="229.437226" y="162.432" style="stroke: #000000; stroke-width: 0.6"/>
      </g>
     </g>
    </g>
    <g id="xtick_26">
     <g id="line2d_26">
      <g>
       <use xlink:href="#m62e604214b" x="237.808971" y="162.432" style="stroke: #000000; stroke-width: 0.6"/>
      </g>
     </g>
    </g>
    <g id="xtick_27">
     <g id="line2d_27">
      <g>
       <use xlink:href="#m62e604214b" x="244.302602" y="162.432" style="stroke: #000000; stroke-width: 0.6"/>
      </g>
     </g>
    </g>
    <g id="xtick_28">
     <g id="line2d_28">
      <g>
       <use xlink:href="#m62e604214b" x="249.608284" y="162.432" style="stroke: #000000; stroke-width: 0.6"/>
      </g>
     </g>
    </g>
    <g id="xtick_29">
     <g id="line2d_29">
      <g>
       <use xlink:href="#m62e604214b" x="254.094175" y="162.432" style="stroke: #000000; stroke-width: 0.6"/>
      </g>
     </g>
    </g>
    <g id="xtick_30">
     <g id="line2d_30">
      <g>
       <use xlink:href="#m62e604214b" x="257.98003" y="162.432" style="stroke: #000000; stroke-width: 0.6"/>
      </g>
     </g>
    </g>
    <g id="xtick_31">
     <g id="line2d_31">
      <g>
       <use xlink:href="#m62e604214b" x="261.407597" y="162.432" style="stroke: #000000; stroke-width: 0.6"/>
      </g>
     </g>
    </g>
    <g id="xtick_32">
     <g id="line2d_32">
      <g>
       <use xlink:href="#m62e604214b" x="284.644719" y="162.432" style="stroke: #000000; stroke-width: 0.6"/>
      </g>
     </g>
    </g>
    <g id="xtick_33">
     <g id="line2d_33">
      <g>
       <use xlink:href="#m62e604214b" x="296.444032" y="162.432" style="stroke: #000000; stroke-width: 0.6"/>
      </g>
     </g>
    </g>
    <g id="xtick_34">
     <g id="line2d_34">
      <g>
       <use xlink:href="#m62e604214b" x="304.815777" y="162.432" style="stroke: #000000; stroke-width: 0.6"/>
      </g>
     </g>
    </g>
    <g id="xtick_35">
     <g id="line2d_35">
      <g>
       <use xlink:href="#m62e604214b" x="311.309408" y="162.432" style="stroke: #000000; stroke-width: 0.6"/>
      </g>
     </g>
    </g>
    <g id="xtick_36">
     <g id="line2d_36">
      <g>
       <use xlink:href="#m62e604214b" x="316.61509" y="162.432" style="stroke: #000000; stroke-width: 0.6"/>
      </g>
     </g>
    </g>
    <g id="xtick_37">
     <g id="line2d_37">
      <g>
       <use xlink:href="#m62e604214b" x="321.100981" y="162.432" style="stroke: #000000; stroke-width: 0.6"/>
      </g>
     </g>
    </g>
    <g id="xtick_38">
     <g id="line2d_38">
      <g>
       <use xlink:href="#m62e604214b" x="324.986836" y="162.432" style="stroke: #000000; stroke-width: 0.6"/>
      </g>
     </g>
    </g>
    <g id="xtick_39">
     <g id="line2d_39">
      <g>
       <use xlink:href="#m62e604214b" x="328.414403" y="162.432" style="stroke: #000000; stroke-width: 0.6"/>
      </g>
     </g>
    </g>
    <g id="xtick_40">
     <g id="line2d_40">
      <g>
       <use xlink:href="#m62e604214b" x="351.651525" y="162.432" style="stroke: #000000; stroke-width: 0.6"/>
      </g>
     </g>
    </g>
    <g id="xtick_41">
     <g id="line2d_41">
      <g>
       <use xlink:href="#m62e604214b" x="363.450838" y="162.432" style="stroke: #000000; stroke-width: 0.6"/>
      </g>
     </g>
    </g>
    <g id="xtick_42">
     <g id="line2d_42">
      <g>
       <use xlink:href="#m62e604214b" x="371.822584" y="162.432" style="stroke: #000000; stroke-width: 0.6"/>
      </g>
     </g>
    </g>
    <g id="xtick_43">
     <g id="line2d_43">
      <g>
       <use xlink:href="#m62e604214b" x="378.316214" y="162.432" style="stroke: #000000; stroke-width: 0.6"/>
      </g>
     </g>
    </g>
    <g id="xtick_44">
     <g id="line2d_44">
      <g>
       <use xlink:href="#m62e604214b" x="383.621897" y="162.432" style="stroke: #000000; stroke-width: 0.6"/>
      </g>
     </g>
    </g>
    <g id="xtick_45">
     <g id="line2d_45">
      <g>
       <use xlink:href="#m62e604214b" x="388.107787" y="162.432" style="stroke: #000000; stroke-width: 0.6"/>
      </g>
     </g>
    </g>
    <g id="xtick_46">
     <g id="line2d_46">
      <g>
       <use xlink:href="#m62e604214b" x="391.993642" y="162.432" style="stroke: #000000; stroke-width: 0.6"/>
      </g>
     </g>
    </g>
    <g id="xtick_47">
     <g id="line2d_47">
      <g>
       <use xlink:href="#m62e604214b" x="395.421209" y="162.432" style="stroke: #000000; stroke-width: 0.6"/>
      </g>
     </g>
    </g>
    <g id="text_1">
     <!-- $k_x/k_N$ -->
     <g transform="translate(223.71 174.030437)scale(0.1 -0.1)">
      <defs>
       <path id="DejaVuSans-Oblique-6b" d="M 1172 4863 
L 1747 4863 
L 1197 2028 
L 3169 3500 
L 3916 3500 
L 1716 1825 
L 3322 0 
L 2625 0 
L 1131 1709 
L 800 0 
L 225 0 
L 1172 4863 
z
" transform="scale(0.015625)"/>
       <path id="DejaVuSans-Oblique-78" d="M 3841 3500 
L 2234 1784 
L 3219 0 
L 2559 0 
L 1819 1388 
L 531 0 
L -166 0 
L 1556 1844 
L 641 3500 
L 1300 3500 
L 1972 2234 
L 3144 3500 
L 3841 3500 
z
" transform="scale(0.015625)"/>
       <path id="DejaVuSans-2f" d="M 1625 4666 
L 2156 4666 
L 531 -594 
L 0 -594 
L 1625 4666 
z
" transform="scale(0.015625)"/>
       <path id="DejaVuSans-Oblique-4e" d="M 1081 4666 
L 1931 4666 
L 3219 666 
L 4000 4666 
L 4616 4666 
L 3706 0 
L 2853 0 
L 1569 4025 
L 788 0 
L 172 0 
L 1081 4666 
z
" transform="scale(0.015625)"/>
      </defs>
      <use xlink:href="#DejaVuSans-Oblique-6b" transform="translate(0 0.015625)"/>
      <use xlink:href="#DejaVuSans-Oblique-78" transform="translate(57.910156 -16.390625)scale(0.7)"/>
      <use xlink:href="#DejaVuSans-2f" transform="translate(102.070312 0.015625)"/>
      <use xlink:href="#DejaVuSans-Oblique-6b" transform="translate(135.761719 0.015625)"/>
      <use xlink:href="#DejaVuSans-Oblique-4e" transform="translate(193.671875 -16.390625)scale(0.7)"/>
     </g>
    </g>
   </g>
   <g id="matplotlib.axis_2">
    <g id="ytick_1">
     <g id="line2d_48">
      <defs>
       <path id="m2ff3533983" d="M 0 0 
L -3.5 0 
" style="stroke: #000000; stroke-width: 0.8"/>
      </defs>
      <g>
       <use xlink:href="#m2ff3533983" x="57.6" y="142.774774" style="stroke: #000000; stroke-width: 0.8"/>
      </g>
     </g>
     <g id="text_2">
      <!-- 2 -->
      <g transform="translate(44.2375 146.573993)scale(0.1 -0.1)">
       <defs>
        <path id="DejaVuSans-32" d="M 1228 531 
L 3431 531 
L 3431 0 
L 469 0 
L 469 531 
Q 828 903 1448 1529 
Q 2069 2156 2228 2338 
Q 2531 2678 2651 2914 
Q 2772 3150 2772 3378 
Q 2772 3750 2511 3984 
Q 2250 4219 1831 4219 
Q 1534 4219 1204 4116 
Q 875 4013 500 3803 
L 500 4441 
Q 881 4594 1212 4672 
Q 1544 4750 1819 4750 
Q 2544 4750 2975 4387 
Q 3406 4025 3406 3419 
Q 3406 3131 3298 2873 
Q 3191 2616 2906 2266 
Q 2828 2175 2409 1742 
Q 1991 1309 1228 531 
z
" transform="scale(0.015625)"/>
       </defs>
       <use xlink:href="#DejaVuSans-32"/>
      </g>
     </g>
    </g>
    <g id="ytick_2">
     <g id="line2d_49">
      <g>
       <use xlink:href="#m2ff3533983" x="57.6" y="118.823548" style="stroke: #000000; stroke-width: 0.8"/>
      </g>
     </g>
     <g id="text_3">
      <!-- 3 -->
      <g transform="translate(44.2375 122.622767)scale(0.1 -0.1)">
       <defs>
        <path id="DejaVuSans-33" d="M 2597 2516 
Q 3050 2419 3304 2112 
Q 3559 1806 3559 1356 
Q 3559 666 3084 287 
Q 2609 -91 1734 -91 
Q 1441 -91 1130 -33 
Q 819 25 488 141 
L 488 750 
Q 750 597 1062 519 
Q 1375 441 1716 441 
Q 2309 441 2620 675 
Q 2931 909 2931 1356 
Q 2931 1769 2642 2001 
Q 2353 2234 1838 2234 
L 1294 2234 
L 1294 2753 
L 1863 2753 
Q 2328 2753 2575 2939 
Q 2822 3125 2822 3475 
Q 2822 3834 2567 4026 
Q 2313 4219 1838 4219 
Q 1578 4219 1281 4162 
Q 984 4106 628 3988 
L 628 4550 
Q 988 4650 1302 4700 
Q 1616 4750 1894 4750 
Q 2613 4750 3031 4423 
Q 3450 4097 3450 3541 
Q 3450 3153 3228 2886 
Q 3006 2619 2597 2516 
z
" transform="scale(0.015625)"/>
       </defs>
       <use xlink:href="#DejaVuSans-33"/>
      </g>
     </g>
    </g>
    <g id="ytick_3">
     <g id="line2d_50">
      <g>
       <use xlink:href="#m2ff3533983" x="57.6" y="94.872322" style="stroke: #000000; stroke-width: 0.8"/>
      </g>
     </g>
     <g id="text_4">
      <!-- 4 -->
      <g transform="translate(44.2375 98.671541)scale(0.1 -0.1)">
       <defs>
        <path id="DejaVuSans-34" d="M 2419 4116 
L 825 1625 
L 2419 1625 
L 2419 4116 
z
M 2253 4666 
L 3047 4666 
L 3047 1625 
L 3713 1625 
L 3713 1100 
L 3047 1100 
L 3047 0 
L 2419 0 
L 2419 1100 
L 313 1100 
L 313 1709 
L 2253 4666 
z
" transform="scale(0.015625)"/>
       </defs>
       <use xlink:href="#DejaVuSans-34"/>
      </g>
     </g>
    </g>
    <g id="ytick_4">
     <g id="line2d_51">
      <g>
       <use xlink:href="#m2ff3533983" x="57.6" y="70.921096" style="stroke: #000000; stroke-width: 0.8"/>
      </g>
     </g>
     <g id="text_5">
      <!-- 5 -->
      <g transform="translate(44.2375 74.720315)scale(0.1 -0.1)">
       <defs>
        <path id="DejaVuSans-35" d="M 691 4666 
L 3169 4666 
L 3169 4134 
L 1269 4134 
L 1269 2991 
Q 1406 3038 1543 3061 
Q 1681 3084 1819 3084 
Q 2600 3084 3056 2656 
Q 3513 2228 3513 1497 
Q 3513 744 3044 326 
Q 2575 -91 1722 -91 
Q 1428 -91 1123 -41 
Q 819 9 494 109 
L 494 744 
Q 775 591 1075 516 
Q 1375 441 1709 441 
Q 2250 441 2565 725 
Q 2881 1009 2881 1497 
Q 2881 1984 2565 2268 
Q 2250 2553 1709 2553 
Q 1456 2553 1204 2497 
Q 953 2441 691 2322 
L 691 4666 
z
" transform="scale(0.015625)"/>
       </defs>
       <use xlink:href="#DejaVuSans-35"/>
      </g>
     </g>
    </g>
    <g id="ytick_5">
     <g id="line2d_52">
      <g>
       <use xlink:href="#m2ff3533983" x="57.6" y="46.96987" style="stroke: #000000; stroke-width: 0.8"/>
      </g>
     </g>
     <g id="text_6">
      <!-- 6 -->
      <g transform="translate(44.2375 50.769089)scale(0.1 -0.1)">
       <defs>
        <path id="DejaVuSans-36" d="M 2113 2584 
Q 1688 2584 1439 2293 
Q 1191 2003 1191 1497 
Q 1191 994 1439 701 
Q 1688 409 2113 409 
Q 2538 409 2786 701 
Q 3034 994 3034 1497 
Q 3034 2003 2786 2293 
Q 2538 2584 2113 2584 
z
M 3366 4563 
L 3366 3988 
Q 3128 4100 2886 4159 
Q 2644 4219 2406 4219 
Q 1781 4219 1451 3797 
Q 1122 3375 1075 2522 
Q 1259 2794 1537 2939 
Q 1816 3084 2150 3084 
Q 2853 3084 3261 2657 
Q 3669 2231 3669 1497 
Q 3669 778 3244 343 
Q 2819 -91 2113 -91 
Q 1303 -91 875 529 
Q 447 1150 447 2328 
Q 447 3434 972 4092 
Q 1497 4750 2381 4750 
Q 2619 4750 2861 4703 
Q 3103 4656 3366 4563 
z
" transform="scale(0.015625)"/>
       </defs>
       <use xlink:href="#DejaVuSans-36"/>
      </g>
     </g>
    </g>
    <g id="text_7">
     <!-- $N_{app}$ -->
     <g transform="translate(37.1375 112.452)rotate(-90)scale(0.1 -0.1)">
      <defs>
       <path id="DejaVuSans-Oblique-61" d="M 3438 1997 
L 3047 0 
L 2472 0 
L 2578 531 
Q 2325 219 2001 64 
Q 1678 -91 1281 -91 
Q 834 -91 548 182 
Q 263 456 263 884 
Q 263 1497 752 1853 
Q 1241 2209 2100 2209 
L 2900 2209 
L 2931 2363 
Q 2938 2388 2941 2417 
Q 2944 2447 2944 2509 
Q 2944 2788 2717 2942 
Q 2491 3097 2081 3097 
Q 1800 3097 1504 3025 
Q 1209 2953 897 2809 
L 997 3341 
Q 1322 3463 1633 3523 
Q 1944 3584 2234 3584 
Q 2853 3584 3176 3315 
Q 3500 3047 3500 2534 
Q 3500 2431 3484 2292 
Q 3469 2153 3438 1997 
z
M 2816 1759 
L 2241 1759 
Q 1534 1759 1195 1570 
Q 856 1381 856 984 
Q 856 709 1029 553 
Q 1203 397 1509 397 
Q 1978 397 2328 733 
Q 2678 1069 2791 1631 
L 2816 1759 
z
" transform="scale(0.015625)"/>
       <path id="DejaVuSans-Oblique-70" d="M 3175 2156 
Q 3175 2616 2975 2859 
Q 2775 3103 2400 3103 
Q 2144 3103 1911 2972 
Q 1678 2841 1497 2591 
Q 1319 2344 1212 1994 
Q 1106 1644 1106 1300 
Q 1106 863 1306 627 
Q 1506 391 1875 391 
Q 2147 391 2380 519 
Q 2613 647 2778 891 
Q 2956 1147 3065 1494 
Q 3175 1841 3175 2156 
z
M 1394 2969 
Q 1625 3272 1939 3428 
Q 2253 3584 2638 3584 
Q 3175 3584 3472 3232 
Q 3769 2881 3769 2247 
Q 3769 1728 3584 1258 
Q 3400 788 3053 416 
Q 2822 169 2531 39 
Q 2241 -91 1919 -91 
Q 1547 -91 1294 64 
Q 1041 219 916 525 
L 556 -1331 
L -19 -1331 
L 922 3500 
L 1497 3500 
L 1394 2969 
z
" transform="scale(0.015625)"/>
      </defs>
      <use xlink:href="#DejaVuSans-Oblique-4e" transform="translate(0 0.09375)"/>
      <use xlink:href="#DejaVuSans-Oblique-61" transform="translate(74.804688 -16.3125)scale(0.7)"/>
      <use xlink:href="#DejaVuSans-Oblique-70" transform="translate(117.700195 -16.3125)scale(0.7)"/>
      <use xlink:href="#DejaVuSans-Oblique-70" transform="translate(162.133789 -16.3125)scale(0.7)"/>
     </g>
    </g>
   </g>
   <g id="line2d_53">
    <path d="M 130.460048 118.113785 
L 133.167394 114.47286 
L 135.874739 110.71592 
L 138.582085 106.900559 
L 141.289431 103.058078 
L 143.996776 99.197214 
L 146.704122 95.315353 
L 149.411468 91.407859 
L 152.118814 87.47679 
L 154.826159 83.535517 
L 157.533505 79.610271 
L 160.240851 75.738652 
L 162.948196 71.965901 
L 165.655542 68.340221 
L 168.362888 64.90835 
L 171.070233 61.712528 
L 173.777579 58.788466 
L 176.484925 56.164585 
L 179.192271 53.861772 
L 181.899616 51.893442 
L 184.606962 50.265695 
L 187.314308 48.97756 
L 190.021653 48.021327 
L 192.728999 47.38306 
L 195.436345 47.043259 
L 198.143691 46.97773 
L 200.851036 47.158595 
L 203.558382 47.555428 
L 206.265728 48.136408 
L 208.973073 48.869467 
L 211.680419 49.723328 
L 214.387765 50.668396 
L 217.09511 51.677459 
L 219.802456 52.726172 
L 222.509802 53.793344 
L 225.217148 54.861032 
L 227.924493 55.914468 
L 230.631839 56.941883 
L 233.339185 57.93423 
L 236.04653 58.884869 
L 238.753876 59.789228 
L 241.461222 60.644469 
L 244.168568 61.449172 
L 246.875913 62.203055 
L 249.583259 62.906708 
L 252.290605 63.561396 
L 254.99795 64.168867 
L 257.705296 64.731207 
L 260.412642 65.250721 
L 263.119987 65.729837 
L 265.827333 66.171035 
L 268.534679 66.576792 
L 271.242025 66.949536 
L 273.94937 67.291621 
L 276.656716 67.605304 
L 279.364062 67.892733 
L 282.071407 68.155936 
L 284.778753 68.39682 
L 287.486099 68.617171 
L 290.193445 68.818651 
L 292.90079 69.002807 
L 295.608136 69.171073 
L 298.315482 69.324774 
L 301.022827 69.465135 
L 303.730173 69.593285 
L 306.437519 69.710261 
L 309.144864 69.817018 
L 311.85221 69.914434 
L 314.559556 70.003312 
L 317.266902 70.084391 
L 319.974247 70.158346 
L 322.681593 70.225797 
L 325.388939 70.287309 
L 328.096284 70.343401 
L 330.80363 70.394547 
L 333.510976 70.441179 
L 336.218321 70.483694 
L 338.925667 70.522452 
L 341.633013 70.557785 
L 344.340359 70.589992 
L 347.047704 70.61935 
L 349.75505 70.64611 
L 352.462396 70.6705 
L 355.169741 70.69273 
L 357.877087 70.712991 
L 360.584433 70.731457 
L 363.291779 70.748285 
L 365.999124 70.763622 
L 368.70647 70.777599 
L 371.413816 70.790337 
L 374.121161 70.801944 
L 376.828507 70.812522 
L 379.535853 70.822162 
L 382.243198 70.830946 
L 384.950544 70.83895 
L 387.65789 70.846245 
L 390.365236 70.852891 
L 393.072581 70.858948 
L 395.779927 70.864467 
L 398.487273 70.869496 
" clip-path="url(#p05e9af3106)" style="fill: none; stroke: #1f77b4; stroke-width: 1.5; stroke-linecap: square"/>
   </g>
   <g id="line2d_54">
    <path d="M 98.489676 147.247557 
L 101.197022 145.76216 
L 103.904368 144.197506 
L 106.611714 142.533591 
L 109.319059 140.74263 
L 112.026405 138.794625 
L 114.733751 136.662023 
L 117.441096 134.324516 
L 120.148442 131.77145 
L 122.855788 129.001483 
L 125.563133 126.019687 
L 128.270479 122.834917 
L 130.977825 119.457045 
L 133.685171 115.897645 
L 136.392516 112.170662 
L 139.099862 108.293814 
L 141.807208 104.288484 
L 144.514553 100.180328 
L 147.221899 95.999222 
L 149.929245 91.778269 
L 152.636591 87.553604 
L 155.343936 83.363692 
L 158.051282 79.248158 
L 160.758628 75.247125 
L 163.465973 71.400265 
L 166.173319 67.745601 
L 168.880665 64.318693 
L 171.58801 61.151675 
L 174.295356 58.27227 
L 177.002702 55.703094 
L 179.710048 53.460966 
L 182.417393 51.556439 
L 185.124739 49.993482 
L 187.832085 48.769444 
L 190.53943 47.875219 
L 193.246776 47.295679 
L 195.954122 47.010327 
L 198.661468 46.99417 
L 201.368813 47.218753 
L 204.076159 47.653288 
L 206.783505 48.265822 
L 209.49085 49.024364 
L 212.198196 49.897892 
L 214.905542 50.857221 
L 217.612887 51.875655 
L 220.320233 52.929438 
L 223.027579 53.997997 
L 225.734925 55.064006 
L 228.44227 56.113288 
L 231.149616 57.134617 
L 233.856962 58.119433 
L 236.564307 59.061517 
L 239.271653 59.956653 
L 241.978999 60.8023 
L 244.686345 61.597275 
L 247.39369 62.341481 
L 250.101036 63.035655 
L 252.808382 63.681166 
L 255.515727 64.279836 
L 258.223073 64.833802 
L 260.930419 65.3454 
L 263.637764 65.817072 
L 266.34511 66.251301 
L 269.052456 66.650559 
L 271.759802 67.01726 
L 274.467147 67.353742 
L 277.174493 67.662241 
L 279.881839 67.944884 
L 282.589184 68.203675 
L 285.29653 68.440497 
L 288.003876 68.657114 
L 290.711222 68.855165 
L 293.418567 69.036174 
L 296.125913 69.201555 
L 298.833259 69.352614 
L 301.540604 69.490555 
L 304.24795 69.61649 
L 306.955296 69.73144 
L 309.662641 69.836346 
L 312.369987 69.932068 
L 315.077333 70.0194 
L 317.784679 70.099066 
L 320.492024 70.171731 
L 323.19937 70.238004 
L 325.906716 70.298441 
L 328.614061 70.353552 
L 331.321407 70.403805 
L 334.028753 70.44962 
L 336.736099 70.491389 
L 339.443444 70.529467 
L 342.15079 70.564179 
L 344.858136 70.595821 
L 347.565481 70.624663 
L 350.272827 70.650952 
L 352.980173 70.674914 
L 355.687518 70.696753 
L 358.394864 70.716657 
L 361.10221 70.734798 
L 363.809556 70.75133 
L 366.516901 70.766397 
" clip-path="url(#p05e9af3106)" style="fill: none; stroke: #ff7f0e; stroke-width: 1.5; stroke-linecap: square"/>
   </g>
   <g id="line2d_55">
    <path d="M 83.6243 153.935779 
L 86.331646 153.001749 
L 89.038992 152.015059 
L 91.746337 150.961663 
L 94.453683 149.822797 
L 97.161029 148.577754 
L 99.868374 147.20682 
L 102.57572 145.693626 
L 105.283066 144.026357 
L 107.990412 142.197309 
L 110.697757 140.201123 
L 113.405103 138.032877 
L 116.112449 135.687052 
L 118.819794 133.158184 
L 121.52714 130.441138 
L 124.234486 127.532607 
L 126.941832 124.431731 
L 129.649177 121.141254 
L 132.356523 117.667201 
L 135.063869 114.019891 
L 137.771214 110.213935 
L 140.47856 106.268666 
L 143.185906 102.207529 
L 145.893251 98.058238 
L 148.600597 93.852491 
L 151.307943 89.624995 
L 154.015289 85.413104 
L 156.722634 81.256062 
L 159.42998 77.193845 
L 162.137326 73.266434 
L 164.844671 69.512827 
L 167.552017 65.969905 
L 170.259363 62.671579 
L 172.966709 59.647866 
L 175.674054 56.923968 
L 178.3814 54.519625 
L 181.088746 52.448508 
L 183.796091 50.717844 
L 186.503437 49.328223 
L 189.210783 48.27367 
L 191.918128 47.541943 
L 194.625474 47.115082 
L 197.33282 46.970182 
L 200.040166 47.08035 
L 202.747511 47.415797 
L 205.454857 47.944998 
L 208.162203 48.635844 
L 210.869548 49.45672 
L 213.576894 50.377445 
L 216.28424 51.370032 
L 218.991586 52.409238 
L 221.698931 53.472912 
L 224.406277 54.542135 
L 227.113623 55.601206 
L 229.820968 56.637481 
L 232.528314 57.641131 
L 235.23566 58.604829 
L 237.943005 59.523419 
L 240.650351 60.393578 
L 243.357697 61.213495 
L 246.065043 61.98257 
L 248.772388 62.701161 
L 251.479734 63.370351 
L 254.18708 63.991758 
L 256.894425 64.567381 
L 259.601771 65.099471 
L 262.309117 65.590428 
L 265.016463 66.042722 
L 267.723808 66.458836 
L 270.431154 66.841217 
L 273.1385 67.192244 
L 275.845845 67.514203 
L 278.553191 67.809277 
L 281.260537 68.07953 
L 283.967882 68.326906 
L 286.675228 68.553227 
L 289.382574 68.760191 
L 292.08992 68.949381 
L 294.797265 69.122262 
L 297.504611 69.280193 
L 300.211957 69.424427 
L 302.919302 69.556121 
L 305.626648 69.676339 
L 308.333994 69.786062 
L 311.04134 69.886188 
L 313.748685 69.977543 
L 316.456031 70.060884 
L 319.163377 70.136906 
L 321.870722 70.206243 
L 324.578068 70.269477 
L 327.285414 70.327141 
L 329.992759 70.379721 
L 332.700105 70.427662 
L 335.407451 70.47137 
L 338.114797 70.511218 
L 340.822142 70.547543 
L 343.529488 70.580657 
L 346.236834 70.610841 
L 348.944179 70.638354 
L 351.651525 70.663431 
" clip-path="url(#p05e9af3106)" style="fill: none; stroke: #2ca02c; stroke-width: 1.5; stroke-linecap: square"/>
   </g>
   <g id="line2d_56">
    <path d="M 73.832727 156.933818 
L 76.540073 156.237545 
L 79.247419 155.502817 
L 81.954764 154.719637 
L 84.66211 153.874463 
L 87.369456 152.952219 
L 90.076802 151.938254 
L 92.784147 150.819909 
L 95.491493 149.587303 
L 98.198839 148.23299 
L 100.906184 146.750704 
L 103.61353 145.133842 
L 106.320876 143.374951 
L 109.028221 141.465239 
L 111.735567 139.395458 
L 114.442913 137.156511 
L 117.150259 134.739981 
L 119.857604 132.139191 
L 122.56495 129.348946 
L 125.272296 126.366645 
L 127.979641 123.192539 
L 130.686987 119.830755 
L 133.394333 116.288842 
L 136.101679 112.578645 
L 138.809024 108.716874 
L 141.51637 104.724173 
L 144.223716 100.625673 
L 146.931061 96.450897 
L 149.638407 92.232542 
L 152.345753 88.006451 
L 155.053098 83.810937 
L 157.760444 79.68549 
L 160.46779 75.670234 
L 163.175136 71.804958 
L 165.882481 68.127889 
L 168.589827 64.674904 
L 171.297173 61.478556 
L 174.004518 58.567072 
L 176.711864 55.963656 
L 179.41921 53.685776 
L 182.126555 51.744674 
L 184.833901 50.145033 
L 187.541247 48.884909 
L 190.248593 47.95588 
L 192.955938 47.343429 
L 195.663284 47.0276 
L 198.37063 46.983832 
L 201.077975 47.184002 
L 203.785321 47.597505 
L 206.492667 48.19246 
L 209.200013 48.936828 
L 211.907358 49.799442 
L 214.614704 50.750882 
L 217.32205 51.76416 
L 220.029395 52.81519 
L 222.736741 53.883049 
L 225.444087 54.950066 
L 228.151432 56.001733 
L 230.858778 57.026521 
L 233.566124 58.015596 
L 236.27347 58.962504 
L 238.980815 59.862833 
L 241.688161 60.713874 
L 244.395507 61.514315 
L 247.102852 62.263952 
L 249.810198 62.963445 
L 252.517544 63.614102 
L 255.22489 64.217707 
L 257.932235 64.776366 
L 260.639581 65.292399 
L 263.346927 65.768241 
L 266.054272 66.206374 
L 268.761618 66.609271 
L 271.468964 66.979356 
L 274.176309 67.318975 
L 276.883655 67.630377 
L 279.591001 67.915696 
L 282.298347 68.176957 
L 285.005692 68.416054 
L 287.713038 68.634761 
L 290.420384 68.834731 
L 293.127729 69.017502 
L 295.835075 69.184498 
L 298.542421 69.337036 
L 301.249767 69.476331 
L 303.957112 69.603505 
L 306.664458 69.719589 
L 309.371804 69.825531 
L 312.079149 69.922201 
L 314.786495 70.010398 
L 317.493841 70.090855 
L 320.201186 70.164242 
L 322.908532 70.231174 
L 325.615878 70.292213 
L 328.323224 70.347873 
L 331.030569 70.398624 
L 333.737915 70.444896 
L 336.445261 70.487083 
L 339.152606 70.525541 
L 341.859952 70.560601 
" clip-path="url(#p05e9af3106)" style="fill: none; stroke: #d62728; stroke-width: 1.5; stroke-linecap: square"/>
   </g>
   <g id="patch_3">
    <path d="M 57.6 162.432 
L 57.6 41.472 
" style="fill: none; stroke: #000000; stroke-width: 0.8; stroke-linejoin: miter; stroke-linecap: square"/>
   </g>
   <g id="patch_4">
    <path d="M 414.72 162.432 
L 414.72 41.472 
" style="fill: none; stroke: #000000; stroke-width: 0.8; stroke-linejoin: miter; stroke-linecap: square"/>
   </g>
   <g id="patch_5">
    <path d="M 57.6 162.432 
L 414.72 162.432 
" style="fill: none; stroke: #000000; stroke-width: 0.8; stroke-linejoin: miter; stroke-linecap: square"/>
   </g>
   <g id="patch_6">
    <path d="M 57.6 41.472 
L 414.72 41.472 
" style="fill: none; stroke: #000000; stroke-width: 0.8; stroke-linejoin: miter; stroke-linecap: square"/>
   </g>
  </g>
  <g id="axes_2">
   <g id="patch_7">
    <path d="M 57.6 307.584 
L 414.72 307.584 
L 414.72 186.624 
L 57.6 186.624 
z
" style="fill: #ffffff"/>
   </g>
   <g id="matplotlib.axis_3">
    <g id="xtick_48">
     <g id="line2d_57">
      <g>
       <use xlink:href="#mde43a81e0b" x="63.453242" y="307.584" style="stroke: #000000; stroke-width: 0.8"/>
      </g>
     </g>
     <g id="text_8">
      <!-- $\mathdefault{10^{-2}}$ -->
      <g transform="translate(51.703242 322.182437)scale(0.1 -0.1)">
       <defs>
        <path id="DejaVuSans-31" d="M 794 531 
L 1825 531 
L 1825 4091 
L 703 3866 
L 703 4441 
L 1819 4666 
L 2450 4666 
L 2450 531 
L 3481 531 
L 3481 0 
L 794 0 
L 794 531 
z
" transform="scale(0.015625)"/>
        <path id="DejaVuSans-30" d="M 2034 4250 
Q 1547 4250 1301 3770 
Q 1056 3291 1056 2328 
Q 1056 1369 1301 889 
Q 1547 409 2034 409 
Q 2525 409 2770 889 
Q 3016 1369 3016 2328 
Q 3016 3291 2770 3770 
Q 2525 4250 2034 4250 
z
M 2034 4750 
Q 2819 4750 3233 4129 
Q 3647 3509 3647 2328 
Q 3647 1150 3233 529 
Q 2819 -91 2034 -91 
Q 1250 -91 836 529 
Q 422 1150 422 2328 
Q 422 3509 836 4129 
Q 1250 4750 2034 4750 
z
" transform="scale(0.015625)"/>
        <path id="DejaVuSans-2212" d="M 678 2272 
L 4684 2272 
L 4684 1741 
L 678 1741 
L 678 2272 
z
" transform="scale(0.015625)"/>
       </defs>
       <use xlink:href="#DejaVuSans-31" transform="translate(0 0.765625)"/>
       <use xlink:href="#DejaVuSans-30" transform="translate(63.623047 0.765625)"/>
       <use xlink:href="#DejaVuSans-2212" transform="translate(128.203125 39.046875)scale(0.7)"/>
       <use xlink:href="#DejaVuSans-32" transform="translate(186.855469 39.046875)scale(0.7)"/>
      </g>
     </g>
    </g>
    <g id="xtick_49">
     <g id="line2d_58">
      <g>
       <use xlink:href="#mde43a81e0b" x="130.460048" y="307.584" style="stroke: #000000; stroke-width: 0.8"/>
      </g>
     </g>
     <g id="text_9">
      <!-- $\mathdefault{10^{-1}}$ -->
      <g transform="translate(118.710048 322.182437)scale(0.1 -0.1)">
       <use xlink:href="#DejaVuSans-31" transform="translate(0 0.684375)"/>
       <use xlink:href="#DejaVuSans-30" transform="translate(63.623047 0.684375)"/>
       <use xlink:href="#DejaVuSans-2212" transform="translate(128.203125 38.965625)scale(0.7)"/>
       <use xlink:href="#DejaVuSans-31" transform="translate(186.855469 38.965625)scale(0.7)"/>
      </g>
     </g>
    </g>
    <g id="xtick_50">
     <g id="line2d_59">
      <g>
       <use xlink:href="#mde43a81e0b" x="197.466854" y="307.584" style="stroke: #000000; stroke-width: 0.8"/>
      </g>
     </g>
     <g id="text_10">
      <!-- $\mathdefault{10^{0}}$ -->
      <g transform="translate(188.666854 322.182437)scale(0.1 -0.1)">
       <use xlink:href="#DejaVuSans-31" transform="translate(0 0.765625)"/>
       <use xlink:href="#DejaVuSans-30" transform="translate(63.623047 0.765625)"/>
       <use xlink:href="#DejaVuSans-30" transform="translate(128.203125 39.046875)scale(0.7)"/>
      </g>
     </g>
    </g>
    <g id="xtick_51">
     <g id="line2d_60">
      <g>
       <use xlink:href="#mde43a81e0b" x="264.47366" y="307.584" style="stroke: #000000; stroke-width: 0.8"/>
      </g>
     </g>
     <g id="text_11">
      <!-- $\mathdefault{10^{1}}$ -->
      <g transform="translate(255.67366 322.182437)scale(0.1 -0.1)">
       <use xlink:href="#DejaVuSans-31" transform="translate(0 0.684375)"/>
       <use xlink:href="#DejaVuSans-30" transform="translate(63.623047 0.684375)"/>
       <use xlink:href="#DejaVuSans-31" transform="translate(128.203125 38.965625)scale(0.7)"/>
      </g>
     </g>
    </g>
    <g id="xtick_52">
     <g id="line2d_61">
      <g>
       <use xlink:href="#mde43a81e0b" x="331.480467" y="307.584" style="stroke: #000000; stroke-width: 0.8"/>
      </g>
     </g>
     <g id="text_12">
      <!-- $\mathdefault{10^{2}}$ -->
      <g transform="translate(322.680467 322.182437)scale(0.1 -0.1)">
       <use xlink:href="#DejaVuSans-31" transform="translate(0 0.765625)"/>
       <use xlink:href="#DejaVuSans-30" transform="translate(63.623047 0.765625)"/>
       <use xlink:href="#DejaVuSans-32" transform="translate(128.203125 39.046875)scale(0.7)"/>
      </g>
     </g>
    </g>
    <g id="xtick_53">
     <g id="line2d_62">
      <g>
       <use xlink:href="#mde43a81e0b" x="398.487273" y="307.584" style="stroke: #000000; stroke-width: 0.8"/>
      </g>
     </g>
     <g id="text_13">
      <!-- $\mathdefault{10^{3}}$ -->
      <g transform="translate(389.687273 322.182437)scale(0.1 -0.1)">
       <use xlink:href="#DejaVuSans-31" transform="translate(0 0.765625)"/>
       <use xlink:href="#DejaVuSans-30" transform="translate(63.623047 0.765625)"/>
       <use xlink:href="#DejaVuSans-33" transform="translate(128.203125 39.046875)scale(0.7)"/>
      </g>
     </g>
    </g>
    <g id="xtick_54">
     <g id="line2d_63">
      <g>
       <use xlink:href="#m62e604214b" x="60.387178" y="307.584" style="stroke: #000000; stroke-width: 0.6"/>
      </g>
     </g>
    </g>
    <g id="xtick_55">
     <g id="line2d_64">
      <g>
       <use xlink:href="#m62e604214b" x="83.6243" y="307.584" style="stroke: #000000; stroke-width: 0.6"/>
      </g>
     </g>
    </g>
    <g id="xtick_56">
     <g id="line2d_65">
      <g>
       <use xlink:href="#m62e604214b" x="95.423613" y="307.584" style="stroke: #000000; stroke-width: 0.6"/>
      </g>
     </g>
    </g>
    <g id="xtick_57">
     <g id="line2d_66">
      <g>
       <use xlink:href="#m62e604214b" x="103.795359" y="307.584" style="stroke: #000000; stroke-width: 0.6"/>
      </g>
     </g>
    </g>
    <g id="xtick_58">
     <g id="line2d_67">
      <g>
       <use xlink:href="#m62e604214b" x="110.288989" y="307.584" style="stroke: #000000; stroke-width: 0.6"/>
      </g>
     </g>
    </g>
    <g id="xtick_59">
     <g id="line2d_68">
      <g>
       <use xlink:href="#m62e604214b" x="115.594672" y="307.584" style="stroke: #000000; stroke-width: 0.6"/>
      </g>
     </g>
    </g>
    <g id="xtick_60">
     <g id="line2d_69">
      <g>
       <use xlink:href="#m62e604214b" x="120.080562" y="307.584" style="stroke: #000000; stroke-width: 0.6"/>
      </g>
     </g>
    </g>
    <g id="xtick_61">
     <g id="line2d_70">
      <g>
       <use xlink:href="#m62e604214b" x="123.966417" y="307.584" style="stroke: #000000; stroke-width: 0.6"/>
      </g>
     </g>
    </g>
    <g id="xtick_62">
     <g id="line2d_71">
      <g>
       <use xlink:href="#m62e604214b" x="127.393985" y="307.584" style="stroke: #000000; stroke-width: 0.6"/>
      </g>
     </g>
    </g>
    <g id="xtick_63">
     <g id="line2d_72">
      <g>
       <use xlink:href="#m62e604214b" x="150.631106" y="307.584" style="stroke: #000000; stroke-width: 0.6"/>
      </g>
     </g>
    </g>
    <g id="xtick_64">
     <g id="line2d_73">
      <g>
       <use xlink:href="#m62e604214b" x="162.430419" y="307.584" style="stroke: #000000; stroke-width: 0.6"/>
      </g>
     </g>
    </g>
    <g id="xtick_65">
     <g id="line2d_74">
      <g>
       <use xlink:href="#m62e604214b" x="170.802165" y="307.584" style="stroke: #000000; stroke-width: 0.6"/>
      </g>
     </g>
    </g>
    <g id="xtick_66">
     <g id="line2d_75">
      <g>
       <use xlink:href="#m62e604214b" x="177.295796" y="307.584" style="stroke: #000000; stroke-width: 0.6"/>
      </g>
     </g>
    </g>
    <g id="xtick_67">
     <g id="line2d_76">
      <g>
       <use xlink:href="#m62e604214b" x="182.601478" y="307.584" style="stroke: #000000; stroke-width: 0.6"/>
      </g>
     </g>
    </g>
    <g id="xtick_68">
     <g id="line2d_77">
      <g>
       <use xlink:href="#m62e604214b" x="187.087368" y="307.584" style="stroke: #000000; stroke-width: 0.6"/>
      </g>
     </g>
    </g>
    <g id="xtick_69">
     <g id="line2d_78">
      <g>
       <use xlink:href="#m62e604214b" x="190.973224" y="307.584" style="stroke: #000000; stroke-width: 0.6"/>
      </g>
     </g>
    </g>
    <g id="xtick_70">
     <g id="line2d_79">
      <g>
       <use xlink:href="#m62e604214b" x="194.400791" y="307.584" style="stroke: #000000; stroke-width: 0.6"/>
      </g>
     </g>
    </g>
    <g id="xtick_71">
     <g id="line2d_80">
      <g>
       <use xlink:href="#m62e604214b" x="217.637913" y="307.584" style="stroke: #000000; stroke-width: 0.6"/>
      </g>
     </g>
    </g>
    <g id="xtick_72">
     <g id="line2d_81">
      <g>
       <use xlink:href="#m62e604214b" x="229.437226" y="307.584" style="stroke: #000000; stroke-width: 0.6"/>
      </g>
     </g>
    </g>
    <g id="xtick_73">
     <g id="line2d_82">
      <g>
       <use xlink:href="#m62e604214b" x="237.808971" y="307.584" style="stroke: #000000; stroke-width: 0.6"/>
      </g>
     </g>
    </g>
    <g id="xtick_74">
     <g id="line2d_83">
      <g>
       <use xlink:href="#m62e604214b" x="244.302602" y="307.584" style="stroke: #000000; stroke-width: 0.6"/>
      </g>
     </g>
    </g>
    <g id="xtick_75">
     <g id="line2d_84">
      <g>
       <use xlink:href="#m62e604214b" x="249.608284" y="307.584" style="stroke: #000000; stroke-width: 0.6"/>
      </g>
     </g>
    </g>
    <g id="xtick_76">
     <g id="line2d_85">
      <g>
       <use xlink:href="#m62e604214b" x="254.094175" y="307.584" style="stroke: #000000; stroke-width: 0.6"/>
      </g>
     </g>
    </g>
    <g id="xtick_77">
     <g id="line2d_86">
      <g>
       <use xlink:href="#m62e604214b" x="257.98003" y="307.584" style="stroke: #000000; stroke-width: 0.6"/>
      </g>
     </g>
    </g>
    <g id="xtick_78">
     <g id="line2d_87">
      <g>
       <use xlink:href="#m62e604214b" x="261.407597" y="307.584" style="stroke: #000000; stroke-width: 0.6"/>
      </g>
     </g>
    </g>
    <g id="xtick_79">
     <g id="line2d_88">
      <g>
       <use xlink:href="#m62e604214b" x="284.644719" y="307.584" style="stroke: #000000; stroke-width: 0.6"/>
      </g>
     </g>
    </g>
    <g id="xtick_80">
     <g id="line2d_89">
      <g>
       <use xlink:href="#m62e604214b" x="296.444032" y="307.584" style="stroke: #000000; stroke-width: 0.6"/>
      </g>
     </g>
    </g>
    <g id="xtick_81">
     <g id="line2d_90">
      <g>
       <use xlink:href="#m62e604214b" x="304.815777" y="307.584" style="stroke: #000000; stroke-width: 0.6"/>
      </g>
     </g>
    </g>
    <g id="xtick_82">
     <g id="line2d_91">
      <g>
       <use xlink:href="#m62e604214b" x="311.309408" y="307.584" style="stroke: #000000; stroke-width: 0.6"/>
      </g>
     </g>
    </g>
    <g id="xtick_83">
     <g id="line2d_92">
      <g>
       <use xlink:href="#m62e604214b" x="316.61509" y="307.584" style="stroke: #000000; stroke-width: 0.6"/>
      </g>
     </g>
    </g>
    <g id="xtick_84">
     <g id="line2d_93">
      <g>
       <use xlink:href="#m62e604214b" x="321.100981" y="307.584" style="stroke: #000000; stroke-width: 0.6"/>
      </g>
     </g>
    </g>
    <g id="xtick_85">
     <g id="line2d_94">
      <g>
       <use xlink:href="#m62e604214b" x="324.986836" y="307.584" style="stroke: #000000; stroke-width: 0.6"/>
      </g>
     </g>
    </g>
    <g id="xtick_86">
     <g id="line2d_95">
      <g>
       <use xlink:href="#m62e604214b" x="328.414403" y="307.584" style="stroke: #000000; stroke-width: 0.6"/>
      </g>
     </g>
    </g>
    <g id="xtick_87">
     <g id="line2d_96">
      <g>
       <use xlink:href="#m62e604214b" x="351.651525" y="307.584" style="stroke: #000000; stroke-width: 0.6"/>
      </g>
     </g>
    </g>
    <g id="xtick_88">
     <g id="line2d_97">
      <g>
       <use xlink:href="#m62e604214b" x="363.450838" y="307.584" style="stroke: #000000; stroke-width: 0.6"/>
      </g>
     </g>
    </g>
    <g id="xtick_89">
     <g id="line2d_98">
      <g>
       <use xlink:href="#m62e604214b" x="371.822584" y="307.584" style="stroke: #000000; stroke-width: 0.6"/>
      </g>
     </g>
    </g>
    <g id="xtick_90">
     <g id="line2d_99">
      <g>
       <use xlink:href="#m62e604214b" x="378.316214" y="307.584" style="stroke: #000000; stroke-width: 0.6"/>
      </g>
     </g>
    </g>
    <g id="xtick_91">
     <g id="line2d_100">
      <g>
       <use xlink:href="#m62e604214b" x="383.621897" y="307.584" style="stroke: #000000; stroke-width: 0.6"/>
      </g>
     </g>
    </g>
    <g id="xtick_92">
     <g id="line2d_101">
      <g>
       <use xlink:href="#m62e604214b" x="388.107787" y="307.584" style="stroke: #000000; stroke-width: 0.6"/>
      </g>
     </g>
    </g>
    <g id="xtick_93">
     <g id="line2d_102">
      <g>
       <use xlink:href="#m62e604214b" x="391.993642" y="307.584" style="stroke: #000000; stroke-width: 0.6"/>
      </g>
     </g>
    </g>
    <g id="xtick_94">
     <g id="line2d_103">
      <g>
       <use xlink:href="#m62e604214b" x="395.421209" y="307.584" style="stroke: #000000; stroke-width: 0.6"/>
      </g>
     </g>
    </g>
    <g id="text_14">
     <!-- $k_x/k_N$ -->
     <g transform="translate(223.71 335.860562)scale(0.1 -0.1)">
      <use xlink:href="#DejaVuSans-Oblique-6b" transform="translate(0 0.015625)"/>
      <use xlink:href="#DejaVuSans-Oblique-78" transform="translate(57.910156 -16.390625)scale(0.7)"/>
      <use xlink:href="#DejaVuSans-2f" transform="translate(102.070312 0.015625)"/>
      <use xlink:href="#DejaVuSans-Oblique-6b" transform="translate(135.761719 0.015625)"/>
      <use xlink:href="#DejaVuSans-Oblique-4e" transform="translate(193.671875 -16.390625)scale(0.7)"/>
     </g>
    </g>
   </g>
   <g id="matplotlib.axis_4">
    <g id="ytick_6">
     <g id="line2d_104">
      <g>
       <use xlink:href="#m2ff3533983" x="57.6" y="304.357375" style="stroke: #000000; stroke-width: 0.8"/>
      </g>
     </g>
     <g id="text_15">
      <!-- 0.0 -->
      <g transform="translate(34.696875 308.156594)scale(0.1 -0.1)">
       <defs>
        <path id="DejaVuSans-2e" d="M 684 794 
L 1344 794 
L 1344 0 
L 684 0 
L 684 794 
z
" transform="scale(0.015625)"/>
       </defs>
       <use xlink:href="#DejaVuSans-30"/>
       <use xlink:href="#DejaVuSans-2e" x="63.623047"/>
       <use xlink:href="#DejaVuSans-30" x="95.410156"/>
      </g>
     </g>
    </g>
    <g id="ytick_7">
     <g id="line2d_105">
      <g>
       <use xlink:href="#m2ff3533983" x="57.6" y="274.005624" style="stroke: #000000; stroke-width: 0.8"/>
      </g>
     </g>
     <g id="text_16">
      <!-- 0.2 -->
      <g transform="translate(34.696875 277.804842)scale(0.1 -0.1)">
       <use xlink:href="#DejaVuSans-30"/>
       <use xlink:href="#DejaVuSans-2e" x="63.623047"/>
       <use xlink:href="#DejaVuSans-32" x="95.410156"/>
      </g>
     </g>
    </g>
    <g id="ytick_8">
     <g id="line2d_106">
      <g>
       <use xlink:href="#m2ff3533983" x="57.6" y="243.653872" style="stroke: #000000; stroke-width: 0.8"/>
      </g>
     </g>
     <g id="text_17">
      <!-- 0.4 -->
      <g transform="translate(34.696875 247.453091)scale(0.1 -0.1)">
       <use xlink:href="#DejaVuSans-30"/>
       <use xlink:href="#DejaVuSans-2e" x="63.623047"/>
       <use xlink:href="#DejaVuSans-34" x="95.410156"/>
      </g>
     </g>
    </g>
    <g id="ytick_9">
     <g id="line2d_107">
      <g>
       <use xlink:href="#m2ff3533983" x="57.6" y="213.302121" style="stroke: #000000; stroke-width: 0.8"/>
      </g>
     </g>
     <g id="text_18">
      <!-- 0.6 -->
      <g transform="translate(34.696875 217.10134)scale(0.1 -0.1)">
       <use xlink:href="#DejaVuSans-30"/>
       <use xlink:href="#DejaVuSans-2e" x="63.623047"/>
       <use xlink:href="#DejaVuSans-36" x="95.410156"/>
      </g>
     </g>
    </g>
    <g id="text_19">
     <!-- $k_{app} (k_N)$ -->
     <g transform="translate(27.596875 266.304)rotate(-90)scale(0.1 -0.1)">
      <defs>
       <path id="DejaVuSans-28" d="M 1984 4856 
Q 1566 4138 1362 3434 
Q 1159 2731 1159 2009 
Q 1159 1288 1364 580 
Q 1569 -128 1984 -844 
L 1484 -844 
Q 1016 -109 783 600 
Q 550 1309 550 2009 
Q 550 2706 781 3412 
Q 1013 4119 1484 4856 
L 1984 4856 
z
" transform="scale(0.015625)"/>
       <path id="DejaVuSans-29" d="M 513 4856 
L 1013 4856 
Q 1481 4119 1714 3412 
Q 1947 2706 1947 2009 
Q 1947 1309 1714 600 
Q 1481 -109 1013 -844 
L 513 -844 
Q 928 -128 1133 580 
Q 1338 1288 1338 2009 
Q 1338 2731 1133 3434 
Q 928 4138 513 4856 
z
" transform="scale(0.015625)"/>
      </defs>
      <use xlink:href="#DejaVuSans-Oblique-6b" transform="translate(0 0.015625)"/>
      <use xlink:href="#DejaVuSans-Oblique-61" transform="translate(57.910156 -16.390625)scale(0.7)"/>
      <use xlink:href="#DejaVuSans-Oblique-70" transform="translate(100.805664 -16.390625)scale(0.7)"/>
      <use xlink:href="#DejaVuSans-Oblique-70" transform="translate(145.239258 -16.390625)scale(0.7)"/>
      <use xlink:href="#DejaVuSans-28" transform="translate(192.407227 0.015625)"/>
      <use xlink:href="#DejaVuSans-Oblique-6b" transform="translate(231.420898 0.015625)"/>
      <use xlink:href="#DejaVuSans-Oblique-4e" transform="translate(289.331055 -16.390625)scale(0.7)"/>
      <use xlink:href="#DejaVuSans-29" transform="translate(344.428711 0.015625)"/>
     </g>
    </g>
   </g>
   <g id="line2d_108">
    <path d="M 130.460048 300.850818 
L 133.167394 300.467316 
L 135.874739 300.061113 
L 138.582085 299.635469 
L 141.289431 299.191761 
L 143.996776 298.729733 
L 146.704122 298.248389 
L 149.411468 297.746752 
L 152.118814 297.224628 
L 154.826159 296.683066 
L 157.533505 296.124581 
L 160.240851 295.553102 
L 162.948196 294.973697 
L 165.655542 294.392165 
L 168.362888 293.814609 
L 171.070233 293.247112 
L 173.777579 292.695474 
L 176.484925 292.165074 
L 179.192271 291.660762 
L 181.899616 291.186778 
L 184.606962 290.74668 
L 187.314308 290.343277 
L 190.021653 289.978566 
L 192.728999 289.653702 
L 195.436345 289.368982 
L 198.143691 289.123879 
L 200.851036 288.917096 
L 203.558382 288.746661 
L 206.265728 288.610048 
L 208.973073 288.504308 
L 211.680419 288.426217 
L 214.387765 288.372419 
L 217.09511 288.339548 
L 219.802456 288.324346 
L 222.509802 288.323745 
L 225.217148 288.334931 
L 227.924493 288.355385 
L 230.631839 288.382894 
L 233.339185 288.415561 
L 236.04653 288.451783 
L 238.753876 288.490233 
L 241.461222 288.529835 
L 244.168568 288.56973 
L 246.875913 288.609248 
L 249.583259 288.647877 
L 252.290605 288.685242 
L 254.99795 288.721072 
L 257.705296 288.75519 
L 260.412642 288.787486 
L 263.119987 288.817905 
L 265.827333 288.846437 
L 268.534679 288.873104 
L 271.242025 288.897952 
L 273.94937 288.921043 
L 276.656716 288.942454 
L 279.364062 288.962267 
L 282.071407 288.98057 
L 284.778753 288.997453 
L 287.486099 289.013005 
L 290.193445 289.027316 
L 292.90079 289.04047 
L 295.608136 289.052549 
L 298.315482 289.063634 
L 301.022827 289.073798 
L 303.730173 289.083113 
L 306.437519 289.091644 
L 309.144864 289.099453 
L 311.85221 289.106598 
L 314.559556 289.113133 
L 317.266902 289.119108 
L 319.974247 289.124569 
L 322.681593 289.129559 
L 325.388939 289.134118 
L 328.096284 289.138281 
L 330.80363 289.142082 
L 333.510976 289.145552 
L 336.218321 289.148719 
L 338.925667 289.151609 
L 341.633013 289.154246 
L 344.340359 289.156652 
L 347.047704 289.158847 
L 349.75505 289.160849 
L 352.462396 289.162675 
L 355.169741 289.16434 
L 357.877087 289.165859 
L 360.584433 289.167243 
L 363.291779 289.168506 
L 365.999124 289.169656 
L 368.70647 289.170706 
L 371.413816 289.171662 
L 374.121161 289.172534 
L 376.828507 289.173329 
L 379.535853 289.174054 
L 382.243198 289.174714 
L 384.950544 289.175316 
L 387.65789 289.175864 
L 390.365236 289.176364 
L 393.072581 289.17682 
L 395.779927 289.177235 
L 398.487273 289.177614 
" clip-path="url(#p5e90ee777e)" style="fill: none; stroke: #1f77b4; stroke-width: 1.5; stroke-linecap: square"/>
   </g>
   <g id="line2d_109">
    <path d="M 98.489676 301.581026 
L 101.197022 301.253877 
L 103.904368 300.894737 
L 106.611714 300.498273 
L 109.319059 300.057567 
L 112.026405 299.564792 
L 114.733751 299.011859 
L 117.441096 298.391313 
L 120.148442 297.696965 
L 122.855788 296.92413 
L 125.563133 296.06936 
L 128.270479 295.130172 
L 130.977825 294.104568 
L 133.685171 292.991255 
L 136.392516 291.789846 
L 139.099862 290.501268 
L 141.807208 289.127825 
L 144.514553 287.673481 
L 147.221899 286.143984 
L 149.929245 284.546725 
L 152.636591 282.890813 
L 155.343936 281.187 
L 158.051282 279.447429 
L 160.758628 277.68552 
L 163.465973 275.915737 
L 166.173319 274.153239 
L 168.880665 272.413601 
L 171.58801 270.712463 
L 174.295356 269.065104 
L 177.002702 267.48608 
L 179.710048 265.988803 
L 182.417393 264.58517 
L 185.124739 263.285199 
L 187.832085 262.096742 
L 190.53943 261.02526 
L 193.246776 260.073701 
L 195.954122 259.242467 
L 198.661468 258.529511 
L 201.368813 257.930531 
L 204.076159 257.439263 
L 206.783505 257.047851 
L 209.49085 256.747261 
L 212.198196 256.527712 
L 214.905542 256.379098 
L 217.612887 256.291365 
L 220.320233 256.254827 
L 223.027579 256.260413 
L 225.734925 256.299846 
L 228.44227 256.365739 
L 231.149616 256.45164 
L 233.856962 256.552025 
L 236.564307 256.662252 
L 239.271653 256.778493 
L 241.978999 256.897648 
L 244.686345 257.017255 
L 247.39369 257.135403 
L 250.101036 257.250642 
L 252.808382 257.361908 
L 255.515727 257.468453 
L 258.223073 257.56978 
L 260.930419 257.665598 
L 263.637764 257.755773 
L 266.34511 257.840292 
L 269.052456 257.919236 
L 271.759802 257.992755 
L 274.467147 258.061047 
L 277.174493 258.124342 
L 279.881839 258.182894 
L 282.589184 258.236968 
L 285.29653 258.286833 
L 288.003876 258.332758 
L 290.711222 258.375005 
L 293.418567 258.413832 
L 296.125913 258.449482 
L 298.833259 258.482191 
L 301.540604 258.512181 
L 304.24795 258.539659 
L 306.955296 258.564824 
L 309.662641 258.587857 
L 312.369987 258.608931 
L 315.077333 258.628204 
L 317.784679 258.645824 
L 320.492024 258.661927 
L 323.19937 258.676641 
L 325.906716 258.69008 
L 328.614061 258.702354 
L 331.321407 258.713561 
L 334.028753 258.723791 
L 336.736099 258.733127 
L 339.443444 258.741647 
L 342.15079 258.749421 
L 344.858136 258.756514 
L 347.565481 258.762984 
L 350.272827 258.768885 
L 352.980173 258.774267 
L 355.687518 258.779175 
L 358.394864 258.783651 
L 361.10221 258.787732 
L 363.809556 258.791452 
L 366.516901 258.794845 
" clip-path="url(#p5e90ee777e)" style="fill: none; stroke: #ff7f0e; stroke-width: 1.5; stroke-linecap: square"/>
   </g>
   <g id="line2d_110">
    <path d="M 83.6243 301.910421 
L 86.331646 301.625397 
L 89.038992 301.310243 
L 91.746337 300.95989 
L 94.453683 300.567903 
L 97.161029 300.126743 
L 99.868374 299.628266 
L 102.57572 299.064218 
L 105.283066 298.42664 
L 107.990412 297.707986 
L 110.697757 296.900906 
L 113.405103 295.997907 
L 116.112449 294.991125 
L 118.819794 293.87255 
L 121.52714 292.634084 
L 124.234486 291.268096 
L 126.941832 289.76772 
L 129.649177 288.127439 
L 132.356523 286.34311 
L 135.063869 284.412564 
L 137.771214 282.335819 
L 140.47856 280.115493 
L 143.185906 277.756765 
L 145.893251 275.267685 
L 148.600597 272.659286 
L 151.307943 269.945347 
L 154.015289 267.142435 
L 156.722634 264.269725 
L 159.42998 261.348575 
L 162.137326 258.402273 
L 164.844671 255.455603 
L 167.552017 252.534248 
L 170.259363 249.664289 
L 172.966709 246.871582 
L 175.674054 244.181055 
L 178.3814 241.616082 
L 181.088746 239.197805 
L 183.796091 236.94453 
L 186.503437 234.871165 
L 189.210783 232.988809 
L 191.918128 231.304443 
L 194.625474 229.820813 
L 197.33282 228.536483 
L 200.040166 227.446073 
L 202.747511 226.54068 
L 205.454857 225.808429 
L 208.162203 225.235136 
L 210.869548 224.805021 
L 213.576894 224.501424 
L 216.28424 224.307473 
L 218.991586 224.206663 
L 221.698931 224.18333 
L 224.406277 224.223001 
L 227.113623 224.312621 
L 229.820968 224.440669 
L 232.528314 224.597186 
L 235.23566 224.773726 
L 237.943005 224.96326 
L 240.650351 225.160043 
L 243.357697 225.359469 
L 246.065043 225.557923 
L 248.772388 225.752626 
L 251.479734 225.941506 
L 254.18708 226.123069 
L 256.894425 226.296296 
L 259.601771 226.460542 
L 262.309117 226.615462 
L 265.016463 226.760945 
L 267.723808 226.897054 
L 270.431154 227.023986 
L 273.1385 227.142036 
L 275.845845 227.251563 
L 278.553191 227.352976 
L 281.260537 227.446706 
L 283.967882 227.533201 
L 286.675228 227.612909 
L 289.382574 227.686275 
L 292.08992 227.753732 
L 294.797265 227.815697 
L 297.504611 227.872571 
L 300.211957 227.924733 
L 302.919302 227.972542 
L 305.626648 228.016336 
L 308.333994 228.056431 
L 311.04134 228.093122 
L 313.748685 228.126685 
L 316.456031 228.157374 
L 319.163377 228.185426 
L 321.870722 228.21106 
L 324.578068 228.234478 
L 327.285414 228.255867 
L 329.992759 228.275397 
L 332.700105 228.293227 
L 335.407451 228.309502 
L 338.114797 228.324355 
L 340.822142 228.337908 
L 343.529488 228.350274 
L 346.236834 228.361554 
L 348.944179 228.371844 
L 351.651525 228.381229 
" clip-path="url(#p5e90ee777e)" style="fill: none; stroke: #2ca02c; stroke-width: 1.5; stroke-linecap: square"/>
   </g>
   <g id="line2d_111">
    <path d="M 73.832727 302.085818 
L 76.540073 301.824852 
L 79.247419 301.535832 
L 81.954764 301.214243 
L 84.66211 300.854348 
L 87.369456 300.449391 
L 90.076802 299.99189 
L 92.784147 299.47398 
L 95.491493 298.887692 
L 98.198839 298.225003 
L 100.906184 297.477644 
L 103.61353 296.636734 
L 106.320876 295.692658 
L 109.028221 294.634819 
L 111.735567 293.451924 
L 114.442913 292.132192 
L 117.150259 290.663595 
L 119.857604 289.034443 
L 122.56495 287.233342 
L 125.272296 285.24991 
L 127.979641 283.075088 
L 130.686987 280.701936 
L 133.394333 278.12561 
L 136.101679 275.344136 
L 138.809024 272.359077 
L 141.51637 269.175269 
L 144.223716 265.801489 
L 146.931061 262.25076 
L 149.638407 258.539859 
L 152.345753 254.689619 
L 155.053098 250.724771 
L 157.760444 246.673282 
L 160.46779 242.566175 
L 163.175136 238.43699 
L 165.882481 234.320934 
L 168.589827 230.254293 
L 171.297173 226.273591 
L 174.004518 222.414608 
L 176.711864 218.711533 
L 179.41921 215.195996 
L 182.126555 211.896175 
L 184.833901 208.835953 
L 187.541247 206.034219 
L 190.248593 203.504342 
L 192.955938 201.253827 
L 195.663284 199.284251 
L 198.37063 197.591428 
L 201.077975 196.16587 
L 203.785321 194.993401 
L 206.492667 194.056048 
L 209.200013 193.332976 
L 211.907358 192.801506 
L 214.614704 192.438094 
L 217.32205 192.219227 
L 220.029395 192.122182 
L 222.736741 192.12562 
L 225.444087 192.210011 
L 228.151432 192.357888 
L 230.858778 192.553964 
L 233.566124 192.78512 
L 236.27347 193.04031 
L 238.980815 193.310406 
L 241.688161 193.588003 
L 244.395507 193.867208 
L 247.102852 194.143432 
L 249.810198 194.413186 
L 252.517544 194.673899 
L 255.22489 194.923752 
L 257.932235 195.16153 
L 260.639581 195.386508 
L 263.346927 195.598335 
L 266.054272 195.796958 
L 268.761618 195.982544 
L 271.468964 196.155428 
L 274.176309 196.31606 
L 276.883655 196.464974 
L 279.591001 196.602753 
L 282.298347 196.730018 
L 285.005692 196.847395 
L 287.713038 196.955511 
L 290.420384 197.054981 
L 293.127729 197.146406 
L 295.835075 197.230361 
L 298.542421 197.307394 
L 301.249767 197.378027 
L 303.957112 197.442751 
L 306.664458 197.502026 
L 309.371804 197.556285 
L 312.079149 197.60593 
L 314.786495 197.651335 
L 317.493841 197.692847 
L 320.201186 197.730788 
L 322.908532 197.765454 
L 325.615878 197.797121 
L 328.323224 197.82604 
L 331.030569 197.852445 
L 333.737915 197.876549 
L 336.445261 197.89855 
L 339.152606 197.918627 
L 341.859952 197.936946 
" clip-path="url(#p5e90ee777e)" style="fill: none; stroke: #d62728; stroke-width: 1.5; stroke-linecap: square"/>
   </g>
   <g id="patch_8">
    <path d="M 57.6 307.584 
L 57.6 186.624 
" style="fill: none; stroke: #000000; stroke-width: 0.8; stroke-linejoin: miter; stroke-linecap: square"/>
   </g>
   <g id="patch_9">
    <path d="M 414.72 307.584 
L 414.72 186.624 
" style="fill: none; stroke: #000000; stroke-width: 0.8; stroke-linejoin: miter; stroke-linecap: square"/>
   </g>
   <g id="patch_10">
    <path d="M 57.6 307.584 
L 414.72 307.584 
" style="fill: none; stroke: #000000; stroke-width: 0.8; stroke-linejoin: miter; stroke-linecap: square"/>
   </g>
   <g id="patch_11">
    <path d="M 57.6 186.624 
L 414.72 186.624 
" style="fill: none; stroke: #000000; stroke-width: 0.8; stroke-linejoin: miter; stroke-linecap: square"/>
   </g>
  </g>
 </g>
 <defs>
  <clipPath id="p05e9af3106">
   <rect x="57.6" y="41.472" width="357.12" height="120.96"/>
  </clipPath>
  <clipPath id="p5e90ee777e">
   <rect x="57.6" y="186.624" width="357.12" height="120.96"/>
  </clipPath>
 </defs>
</svg>
